{"title":"Abducted The Carlina White Story (2012) DVDRip XViD juggs","uid":8330026,"size":1387804901,"categoryP":"video","categoryS":"movies","magnet":"?xt=urn:btih:75fa73d28e09ab16a7f3707754f452cf0e213ba9&amp;dn=Abducted+The+Carlina+White+Story+%282012%29+DVDRip+XViD+juggs&amp;tr=udp%3A%2F%2Ftracker.openbittorrent.com%3A80&amp;tr=udp%3A%2F%2Fopen.demonii.com%3A1337&amp;tr=udp%3A%2F%2Ftracker.coppersurfer.tk%3A6969&amp;tr=udp%3A%2F%2Fexodus.desync.com%3A6969","seeders":5,"leechers":2,"uploader":"juggs99","files":3,"time":1364866833,"description":"Source : DVDR NoRBiT (Thanks)\n &lt;a href=&quot;\nhttp://www.imdb.com/title/tt2212658/&quot; rel=&quot;nofollow&quot; target=&quot;_NEW&quot;&gt;\nhttp://www.imdb.com/title/tt2212658/&lt;/a&gt;\n\n\nFormat                                   : AVI\nFormat/Info                              : Audio Video Interleave\nFile size                                : 1.28 GiB\nDuration                                 : 2h 10mn\nOverall bit rate                         : 1 397 Kbps\nWriting library                          : VirtualDub build 32842/release\n\nVideo\nID                                       : 0\nFormat                                   : MPEG-4 Visual\nFormat profile                           : Advanced Simple@L5\nFormat settings, BVOP                    : 4\nFormat settings, QPel                    : No\nFormat settings, GMC                     : No warppoints\nFormat settings, Matrix                  : Default (H.263)\nMuxing mode                              : Packed bitstream\nCodec ID                                 : XVID\nCodec ID/Hint                            : XviD\nDuration                                 : 2h 10mn\nBit rate                                 : 876 Kbps\nWidth                                    : 640 pixels\nHeight                                   : 352 pixels\nDisplay aspect ratio                     : 16:9\nFrame rate                               : 23.976 fps\nColor space                              : YUV\nChroma subsampling                       : 4:2:0\nBit depth                                : 8 bits\nScan type                                : Progressive\nCompression mode                         : Lossy\nBits/(Pixel*Frame)                       : 0.162\nStream size                              : 820 MiB (63%)\nWriting library                          : XviD 1.2.0.dev47 (UTC 2006-11-01)\n\nAudio\nID                                       : 1\nFormat                                   : AC-3\nFormat/Info                              : Audio Coding 3\nMode extension                           : CM (complete main)\nFormat settings, Endianness              : Big\nCodec ID                                 : 2000\nDuration                                 : 2h 10mn\nBit rate mode                            : Constant\nBit rate                                 : 512 Kbps\nChannel(s)                               : 2 channels\nChannel positions                        : Front: L R\nSampling rate                            : 48.0 KHz\nBit depth                                : 16 bits\nCompression mode                         : Lossy\nStream size                              : 479 MiB (37%)\nAlignment                                : Aligned on interleaves\nInterleave, duration                     : 42 ms (1.00 video frame)\nInterleave, preload duration             : 512 ms\n\nPlot\nA baby abducted at birth and raised by the woman who took her, eventually discovers she is a missing child, reconnects with her birth parents, and struggles with choosing between her two identities.\n &lt;a href=&quot;\nhttp://www.shotpix.com/images/30590485403533357869.png&quot; rel=&quot;nofollow&quot; target=&quot;_NEW&quot;&gt;\nhttp://www.shotpix.com/images/30590485403533357869.png&lt;/a&gt; &lt;a href=&quot;\nhttp://www.shotpix.com/images/11112006804085459098.png&quot; rel=&quot;nofollow&quot; target=&quot;_NEW&quot;&gt;\nhttp://www.shotpix.com/images/11112006804085459098.png&lt;/a&gt; &lt;a href=&quot;\nhttp://www.shotpix.com/images/37389948185544403129.png&quot; rel=&quot;nofollow&quot; target=&quot;_NEW&quot;&gt;\nhttp://www.shotpix.com/images/37389948185544403129.png&lt;/a&gt;","torrent":{"xt":"urn:btih:75fa73d28e09ab16a7f3707754f452cf0e213ba9","amp;dn":"Abducted+The+Carlina+White+Story+%282012%29+DVDRip+XViD+juggs","amp;tr":["udp%3A%2F%2Ftracker.openbittorrent.com%3A80","udp%3A%2F%2Fopen.demonii.com%3A1337","udp%3A%2F%2Ftracker.coppersurfer.tk%3A6969","udp%3A%2F%2Fexodus.desync.com%3A6969"],"infoHash":"75fa73d28e09ab16a7f3707754f452cf0e213ba9","infoHashBuffer":{"type":"Buffer","data":[117,250,115,210,142,9,171,22,167,243,112,119,84,244,82,207,14,33,59,169]},"announce":[],"urlList":[]}}